<svg xmlns="http://www.w3.org/2000/svg" viewBox="0 0 280 280">
    <g fill="none" stroke-width="2">
        <path stroke="#cda4c9" d="M49.1 118.75q-.34 38.18.26 66.18.06 2.9 1.85 5.82"
            vector-effect="non-scaling-stroke" />
        <path stroke="#b58abb"
            d="M51.21 190.75q1.9 4.12 5.87 6.42 36.9 21.36 73.87 42.62c7.96 4.58 13.85 2.41 21.88-2.2q48.23-27.63 70.11-40.39 3.91-2.28 6.1-6.7"
            vector-effect="non-scaling-stroke" />
        <path stroke="#c098c2"
            d="M229.04 190.5q2.15-5.14 2.17-13.01.08-37.37-.05-74.74c-.02-8.6-1.06-15.7-8.14-19.79q-34.87-20.14-69.77-40.22c-8.85-5.1-14.51-6.88-23.32-1.82Q96.65 60.06 63.42 79.27c-9.18 5.3-14.18 7.93-14.14 19.8q.03 9.87-.18 19.68"
            vector-effect="non-scaling-stroke" />
        <path stroke="#76237e"
            d="M229.04 190.5q-.42-1.2-1.1-.56a1.01.99 38.4 0 1-1.19.13L192.79 170"
            vector-effect="non-scaling-stroke" />
        <path stroke="#c098c2" d="m192.79 170-.33-.5" vector-effect="non-scaling-stroke" />
        <path stroke="#76237e"
            d="M192.46 169.5c.13-.46-.09-.94-.51-1.2q-17.28-10.47-24.39-14.36-.91-.5-2.2.05a1.01 1.01 0 0 1-.91-.06l-24.07-14.32"
            vector-effect="non-scaling-stroke" />
        <path stroke="#8e3d8c"
            d="m140.38 139.61 23.36-13.57a.99.99 0 0 0 .36-1.37q-4.27-7.18-12.54-10.74c-14.02-6.03-30.01-.52-37.09 12.86a.52.51 33.6 0 1-.78.15l-.23-.19"
            vector-effect="non-scaling-stroke" />
        <path stroke="#c098c2"
            d="M113.46 126.75c7.78-15.91 26.48-20.83 41.75-12.47q5.56 3.05 10.35 10.02a1 1 0 0 0 1.32.3l24.83-14.27a1 .99-31.1 0 0 .35-1.4q-11.6-18.48-31.21-25.7c-37.33-13.74-77.73 11.9-81.13 51.45q-1.57 18.3 7.49 35.07"
            vector-effect="non-scaling-stroke" />
        <path stroke="#76237e" d="M87.21 169.75h-.92" vector-effect="non-scaling-stroke" />
        <path stroke="#8e3d8c"
            d="M86.29 169.75q-1.92-2.35-3.09-5.22-9.91-24.25-.64-47.12c10.88-26.87 40.02-44.28 68.87-38.32q26.96 5.57 41.51 29.11a1 1 0 0 0 1.35.34l32.52-18.74a1.01 1.01 0 0 0 .36-1.39c-1.16-1.92-3.22-3.6-5.38-4.84q-32.77-18.76-65.38-37.8c-8.33-4.86-16.44-9.25-24.34-4.7Q96.78 61.39 61.42 81.58c-6.8 3.88-11.26 8.2-11.12 15.92q.19 10.12.2 20.22a1.02.99-12.5 0 1-.6.91q-.36.16-.8.12"
            vector-effect="non-scaling-stroke" />
        <path stroke="#822f85"
            d="m86.29 169.75-.03.4a1 .99 77.5 0 1-.5.79l-34.55 19.81m89.17-51.14-26.58 14.65"
            vector-effect="non-scaling-stroke" />
        <path stroke="#cda4c9" d="M113.46 126.75q-6.9 13.53.34 27.51"
            vector-effect="non-scaling-stroke" />
        <path stroke="#b58abb"
            d="M113.8 154.26c6.62 11.72 18.96 17.48 32.15 14.94q12.39-2.39 19.78-13.92a1.01 1-58.6 0 1 1.34-.33l25.39 14.55"
            vector-effect="non-scaling-stroke" />
        <path stroke="#b58abb" d="M192.79 170c-24.96 40.89-81.08 40.47-105.58-.25"
            vector-effect="non-scaling-stroke" />
        <path stroke="#c098c2"
            d="M192.77 136.75a.48.48 0 0 1 .48.48v5.87a.48.48 0 0 1-.46.48l-3.83.16a.48.48 0 0 0-.46.48v5.05a.48.48 0 0 0 .48.48h3.79a.48.48 0 0 1 .48.48v4.04a.48.48 0 0 0 .48.48h5.42a.48.48 0 0 0 .48-.5l-.16-4.02a.48.48 0 0 1 .49-.5l6.06.1a.48.48 0 0 1 .47.48l.01 3.96a.48.48 0 0 0 .48.48l5.47.01a.48.48 0 0 0 .48-.51l-.23-3.99a.48.48 0 0 1 .48-.51l3.84-.01a.48.48 0 0 0 .48-.48v-5.03a.48.48 0 0 0-.48-.48h-3.79a.48.48 0 0 1-.48-.48v-6.01a.48.48 0 0 1 .47-.48l3.81-.11a.48.48 0 0 0 .47-.48v-5.25a.48.48 0 0 0-.49-.48l-3.77.05a.48.48 0 0 1-.49-.48v-4.05a.48.48 0 0 0-.48-.48h-5.31a.48.48 0 0 0-.48.49l.07 3.94a.48.48 0 0 1-.47.49l-6.09.08a.48.48 0 0 1-.49-.48l-.01-4.04a.48.48 0 0 0-.48-.48h-5.28a.48.48 0 0 0-.48.48v3.92a.48.48 0 0 1-.48.48l-3.87.01a.48.48 0 0 0-.48.49l.11 5.4a.48.48 0 0 0 .48.47h3.76"
            vector-effect="non-scaling-stroke" />
        <path stroke="#c098c2"
            d="M206.484 136.984a.26.26 0 0 0-.26-.26l-6.3.012a.26.26 0 0 0-.26.26l.012 6.38a.26.26 0 0 0 .26.26l6.3-.011a.26.26 0 0 0 .26-.261l-.012-6.38"
            vector-effect="non-scaling-stroke" />
    </g>
    <path fill="#813084"
        d="M229.04 190.5q-.42-1.2-1.1-.56a1.01.99 38.4 0 1-1.19.13L192.79 170l-.33-.5c.13-.46-.09-.94-.51-1.2q-17.28-10.47-24.39-14.36-.91-.5-2.2.05a1.01 1.01 0 0 1-.91-.06l-24.07-14.32 23.36-13.57a.99.99 0 0 0 .36-1.37q-4.27-7.18-12.54-10.74c-14.02-6.03-30.01-.52-37.09 12.86a.52.51 33.6 0 1-.78.15l-.23-.19c7.78-15.91 26.48-20.83 41.75-12.47q5.56 3.05 10.35 10.02a1 1 0 0 0 1.32.3l24.83-14.27a1 .99-31.1 0 0 .35-1.4q-11.6-18.48-31.21-25.7c-37.33-13.74-77.73 11.9-81.13 51.45q-1.57 18.3 7.49 35.07h-.92q-1.92-2.35-3.09-5.22-9.91-24.25-.64-47.12c10.88-26.87 40.02-44.28 68.87-38.32q26.96 5.57 41.51 29.11a1 1 0 0 0 1.35.34l32.52-18.74a1.01 1.01 0 0 0 .36-1.39c-1.16-1.92-3.22-3.6-5.38-4.84q-32.77-18.76-65.38-37.8c-8.33-4.86-16.44-9.25-24.34-4.7Q96.78 61.39 61.42 81.58c-6.8 3.88-11.26 8.2-11.12 15.92q.19 10.12.2 20.22a1.02.99-12.5 0 1-.6.91q-.36.16-.8.12.21-9.81.18-19.68c-.04-11.87 4.96-14.5 14.14-19.8q33.23-19.21 66.51-38.35c8.81-5.06 14.47-3.28 23.32 1.82q34.9 20.08 69.77 40.22c7.08 4.09 8.12 11.19 8.14 19.79q.13 37.37.05 74.74-.02 7.87-2.17 13.01Zm-36.27-53.75a.48.48 0 0 1 .48.48v5.87a.48.48 0 0 1-.46.48l-3.83.16a.48.48 0 0 0-.46.48v5.05a.48.48 0 0 0 .48.48h3.79a.48.48 0 0 1 .48.48v4.04a.48.48 0 0 0 .48.48h5.42a.48.48 0 0 0 .48-.5l-.16-4.02a.48.48 0 0 1 .49-.5l6.06.1a.48.48 0 0 1 .47.48l.01 3.96a.48.48 0 0 0 .48.48l5.47.01a.48.48 0 0 0 .48-.51l-.23-3.99a.48.48 0 0 1 .48-.51l3.84-.01a.48.48 0 0 0 .48-.48v-5.03a.48.48 0 0 0-.48-.48h-3.79a.48.48 0 0 1-.48-.48v-6.01a.48.48 0 0 1 .47-.48l3.81-.11a.48.48 0 0 0 .47-.48v-5.25a.48.48 0 0 0-.49-.48l-3.77.05a.48.48 0 0 1-.49-.48v-4.05a.48.48 0 0 0-.48-.48h-5.31a.48.48 0 0 0-.48.49l.07 3.94a.48.48 0 0 1-.47.49l-6.09.08a.48.48 0 0 1-.49-.48l-.01-4.04a.48.48 0 0 0-.48-.48h-5.28a.48.48 0 0 0-.48.48v3.92a.48.48 0 0 1-.48.48l-3.87.01a.48.48 0 0 0-.48.49l.11 5.4a.48.48 0 0 0 .48.47h3.76Z" />
    <path fill="#9a4993"
        d="m86.29 169.75-.03.4a1 .99 77.5 0 1-.5.79l-34.55 19.81q-1.79-2.92-1.85-5.82-.6-28-.26-66.18.44.04.8-.12a1.02.99-12.5 0 0 .6-.91q-.01-10.1-.2-20.22c-.14-7.72 4.32-12.04 11.12-15.92q35.36-20.19 70.65-40.51c7.9-4.55 16.01-.16 24.34 4.7q32.61 19.04 65.38 37.8c2.16 1.24 4.22 2.92 5.38 4.84a1.01 1.01 0 0 1-.36 1.39l-32.52 18.74a1 1 0 0 1-1.35-.34q-14.55-23.54-41.51-29.11c-28.85-5.96-57.99 11.45-68.87 38.32q-9.27 22.87.64 47.12 1.17 2.87 3.09 5.22Z" />
    <path fill="#fff"
        d="M113.46 126.75q-6.9 13.53.34 27.51c6.62 11.72 18.96 17.48 32.15 14.94q12.39-2.39 19.78-13.92a1.01 1-58.6 0 1 1.34-.33l25.39 14.55.33.5c-24.96 40.89-81.08 40.47-105.58-.25q-9.06-16.77-7.49-35.07c3.4-39.55 43.8-65.19 81.13-51.45q19.61 7.22 31.21 25.7a1 .99-31.1 0 1-.35 1.4l-24.83 14.27a1 1 0 0 1-1.32-.3q-4.79-6.97-10.35-10.02c-15.27-8.36-33.97-3.44-41.75 12.47Z" />
    <path fill="#9a4993"
        d="m140.38 139.61-26.58 14.65q-7.24-13.98-.34-27.51l.23.19a.52.51 33.6 0 0 .78-.15c7.08-13.38 23.07-18.89 37.09-12.86q8.27 3.56 12.54 10.74a.99.99 0 0 1-.36 1.37l-23.36 13.57Z" />
    <path fill="#fff"
        d="M192.77 136.75h-3.76a.48.48 0 0 1-.48-.47l-.11-5.4a.48.48 0 0 1 .48-.49l3.87-.01a.48.48 0 0 0 .48-.48v-3.92a.48.48 0 0 1 .48-.48h5.28a.48.48 0 0 1 .48.48l.01 4.04a.48.48 0 0 0 .49.48l6.09-.08a.48.48 0 0 0 .47-.49l-.07-3.94a.48.48 0 0 1 .48-.49h5.31a.48.48 0 0 1 .48.48v4.05a.48.48 0 0 0 .49.48l3.77-.05a.48.48 0 0 1 .49.48v5.25a.48.48 0 0 1-.47.48l-3.81.11a.48.48 0 0 0-.47.48v6.01a.48.48 0 0 0 .48.48h3.79a.48.48 0 0 1 .48.48v5.03a.48.48 0 0 1-.48.48l-3.84.01a.48.48 0 0 0-.48.51l.23 3.99a.48.48 0 0 1-.48.51l-5.47-.01a.48.48 0 0 1-.48-.48l-.01-3.96a.48.48 0 0 0-.47-.48l-6.06-.1a.48.48 0 0 0-.49.5l.16 4.02a.48.48 0 0 1-.48.5h-5.42a.48.48 0 0 1-.48-.48v-4.04a.48.48 0 0 0-.48-.48h-3.79a.48.48 0 0 1-.48-.48v-5.05a.48.48 0 0 1 .46-.48l3.83-.16a.48.48 0 0 0 .46-.48v-5.87a.48.48 0 0 0-.48-.48Zm13.714.234a.26.26 0 0 0-.26-.26l-6.3.012a.26.26 0 0 0-.26.26l.012 6.38a.26.26 0 0 0 .26.26l6.3-.011a.26.26 0 0 0 .26-.261l-.012-6.38Z" />
    <rect width="6.82" height="6.9" x="-3.41" y="-3.45" fill="#813084" rx=".26"
        transform="rotate(-.1 80418.743 -116286.15)" />
    <path fill="#6a1577"
        d="m140.38 139.61 24.07 14.32a1.01 1.01 0 0 0 .91.06q1.29-.55 2.2-.05 7.11 3.89 24.39 14.36c.42.26.64.74.51 1.2l-25.39-14.55a1.01 1-58.6 0 0-1.34.33q-7.39 11.53-19.78 13.92c-13.19 2.54-25.53-3.22-32.15-14.94l26.58-14.65Z" />
    <path fill="#6a1577"
        d="M86.29 169.75h.92c24.5 40.72 80.62 41.14 105.58.25l33.96 20.07a1.01.99 38.4 0 0 1.19-.13q.68-.64 1.1.56-2.19 4.42-6.1 6.7-21.88 12.76-70.11 40.39c-8.03 4.61-13.92 6.78-21.88 2.2q-36.97-21.26-73.87-42.62-3.97-2.3-5.87-6.42l34.55-19.81a1 .99 77.5 0 0 .5-.79l.03-.4Z" />
</svg>